<?xml version="1.0" encoding="UTF-8"?>
<svg width="12px" height="12px" viewBox="0 0 12 12" version="1.1" xmlns="http://www.w3.org/2000/svg" xmlns:xlink="http://www.w3.org/1999/xlink">
    <!-- Generator: Sketch 63.1 (92452) - https://sketch.com -->
    <title>Path</title>
    <desc>Created with Sketch.</desc>
    <g id="Page-1" stroke="none" stroke-width="1" fill="none" fill-rule="evenodd">
        <g id="Landing-Page" transform="translate(-11.000000, -818.000000)" fill="#009662">
            <g id="Group-3" transform="translate(8.000000, 814.000000)">
                <path d="M10.8539995,7.75599978 L14.5992433,8.30342315 C14.7085389,8.31939834 14.78419,8.42095039 14.7682149,8.530246 C14.7618579,8.57373765 14.7413508,8.613924 14.7098642,8.64459199 L12,11.2839996 L12,11.2839996 L12.639485,15.0125254 C12.658157,15.1213927 12.5850393,15.2247837 12.476172,15.2434557 C12.4328121,15.2508924 12.38821,15.2438253 12.3492731,15.2233487 L9,13.4619994 L9,13.4619994 L5.65072629,15.2233487 C5.55296376,15.274761 5.43203366,15.2371868 5.38062133,15.1394243 C5.36014476,15.1004873 5.3530776,15.0558852 5.36051431,15.0125253 L6,11.2839996 L6,11.2839996 L3.29013579,8.64459198 C3.21100906,8.56752255 3.20934129,8.44090054 3.28641072,8.3617738 C3.31707871,8.33028716 3.35726506,8.3097801 3.40075671,8.30342314 L7.14599975,7.75599978 L7.14599975,7.75599978 L8.8206585,4.36332607 C8.8695494,4.26427852 8.98947721,4.22361851 9.08852476,4.2725094 C9.12795805,4.29197408 9.15987677,4.32389281 9.17934144,4.3633261 L10.8539995,7.75599978 L10.8539995,7.75599978 Z" id="Path"></path>
            </g>
        </g>
    </g>
</svg>